<?xml version="1.0" encoding="UTF-8" standalone="no"?>
<!DOCTYPE svg PUBLIC "-//W3C//DTD SVG 1.1//EN"
 "http://www.w3.org/Graphics/SVG/1.1/DTD/svg11.dtd">
<!-- Generated by graphviz version 2.43.0 (0)
 -->
<!-- Title: largeRelationshipsDiagram Pages: 1 -->
<svg width="512pt" height="744pt"
 viewBox="0.00 0.00 512.00 744.00" xmlns="http://www.w3.org/2000/svg" xmlns:xlink="http://www.w3.org/1999/xlink">
<g id="graph0" class="graph" transform="scale(1 1) rotate(0) translate(4 740)">
<title>largeRelationshipsDiagram</title>
<polygon fill="#ffffff" stroke="transparent" points="-4,4 -4,-740 508,-740 508,4 -4,4"/>
<text text-anchor="middle" x="79.5" y="-7.2" font-family="Helvetica,sans-Serif" font-size="11.00">Generated by SchemaSpy</text>
<!-- execution -->
<g id="node1" class="node">
<title>execution</title>
<g id="a_node1"><a xlink:href="../../tables/execution.html" xlink:title="execution" target="_top">
<polygon fill="#ffffff" stroke="transparent" points="199,-398 199,-680 341,-680 341,-398 199,-398"/>
<polygon fill="#f5f5f5" stroke="transparent" points="199,-658 199,-680 341,-680 341,-658 199,-658"/>
<polygon fill="none" stroke="black" points="199,-658 199,-680 341,-680 341,-658 199,-658"/>
<text text-anchor="start" x="204" y="-667.2" font-family="Helvetica,sans-Serif" font-weight="bold" font-size="11.00">execution</text>
<text text-anchor="start" x="299" y="-666.2" font-family="Helvetica,sans-Serif" font-size="11.00">[table]</text>
<polygon fill="none" stroke="black" points="199,-636 199,-658 341,-658 341,-636 199,-636"/>
<image xlink:href="../../images/primaryKeys.png" width="11px" height="12px" preserveAspectRatio="xMinYMin meet" x="204" y="-653"/>
<text text-anchor="start" x="219" y="-644.2" font-family="Helvetica,sans-Serif" font-size="11.00">execution_id</text>
<polygon fill="none" stroke="black" points="199,-614 199,-636 341,-636 341,-614 199,-614"/>
<image xlink:href="../../images/foreignKeys.png" width="11px" height="12px" preserveAspectRatio="xMinYMin meet" x="204" y="-631"/>
<text text-anchor="start" x="219" y="-622.2" font-family="Helvetica,sans-Serif" font-size="11.00">worker_id</text>
<polygon fill="none" stroke="black" points="199,-592 199,-614 341,-614 341,-592 199,-592"/>
<image xlink:href="../../images/foreignKeys.png" width="11px" height="12px" preserveAspectRatio="xMinYMin meet" x="204" y="-609"/>
<text text-anchor="start" x="219" y="-600.2" font-family="Helvetica,sans-Serif" font-size="11.00">task_id</text>
<polygon fill="none" stroke="black" points="199,-570 199,-592 341,-592 341,-570 199,-570"/>
<text text-anchor="start" x="219" y="-578.2" font-family="Helvetica,sans-Serif" font-size="11.00">status</text>
<polygon fill="none" stroke="black" points="199,-548 199,-570 341,-570 341,-548 199,-548"/>
<text text-anchor="start" x="219" y="-556.2" font-family="Helvetica,sans-Serif" font-size="11.00">creation_date</text>
<polygon fill="none" stroke="black" points="199,-526 199,-548 341,-548 341,-526 199,-526"/>
<text text-anchor="start" x="219" y="-534.2" font-family="Helvetica,sans-Serif" font-size="11.00">modification_date</text>
<polygon fill="none" stroke="black" points="199,-504 199,-526 341,-526 341,-504 199,-504"/>
<text text-anchor="start" x="219" y="-512.2" font-family="Helvetica,sans-Serif" font-size="11.00">output</text>
<polygon fill="none" stroke="black" points="199,-482 199,-504 341,-504 341,-482 199,-482"/>
<text text-anchor="start" x="219" y="-490.2" font-family="Helvetica,sans-Serif" font-size="11.00">error</text>
<polygon fill="none" stroke="black" points="199,-460 199,-482 341,-482 341,-460 199,-460"/>
<text text-anchor="start" x="219" y="-468.2" font-family="Helvetica,sans-Serif" font-size="11.00">return_code</text>
<polygon fill="none" stroke="black" points="199,-438 199,-460 341,-460 341,-438 199,-438"/>
<text text-anchor="start" x="219" y="-446.2" font-family="Helvetica,sans-Serif" font-size="11.00">pid</text>
<polygon fill="none" stroke="black" points="199,-416 199,-438 341,-438 341,-416 199,-416"/>
<text text-anchor="start" x="219" y="-424.2" font-family="Helvetica,sans-Serif" font-size="11.00">output_files</text>
<polygon fill="#ffffff" stroke="transparent" points="199,-398 199,-416 248,-416 248,-398 199,-398"/>
<polygon fill="none" stroke="black" points="199,-398 199,-416 248,-416 248,-398 199,-398"/>
<text text-anchor="start" x="202" y="-404.2" font-family="Helvetica,sans-Serif" font-size="11.00">&lt; 2</text>
<polygon fill="#ffffff" stroke="transparent" points="248,-398 248,-416 303,-416 303,-398 248,-398"/>
<polygon fill="none" stroke="black" points="248,-398 248,-416 303,-416 303,-398 248,-398"/>
<text text-anchor="start" x="263" y="-404.2" font-family="Helvetica,sans-Serif" font-size="11.00">5 rows</text>
<polygon fill="#ffffff" stroke="transparent" points="303,-398 303,-416 341,-416 341,-398 303,-398"/>
<polygon fill="none" stroke="black" points="303,-398 303,-416 341,-416 341,-398 303,-398"/>
<text text-anchor="start" x="318" y="-404.2" font-family="Helvetica,sans-Serif" font-size="11.00">1 &gt;</text>
</a>
</g>
</g>
<!-- task -->
<g id="node3" class="node">
<title>task</title>
<g id="a_node3"><a xlink:href="../../tables/task.html" xlink:title="task" target="_top">
<polygon fill="#ffffff" stroke="transparent" points="8,-428 8,-732 150,-732 150,-428 8,-428"/>
<polygon fill="#f5f5f5" stroke="transparent" points="8,-710 8,-732 150,-732 150,-710 8,-710"/>
<polygon fill="none" stroke="black" points="8,-710 8,-732 150,-732 150,-710 8,-710"/>
<text text-anchor="start" x="13" y="-719.2" font-family="Helvetica,sans-Serif" font-weight="bold" font-size="11.00">task</text>
<text text-anchor="start" x="108" y="-718.2" font-family="Helvetica,sans-Serif" font-size="11.00">[table]</text>
<polygon fill="none" stroke="black" points="8,-688 8,-710 150,-710 150,-688 8,-688"/>
<image xlink:href="../../images/primaryKeys.png" width="11px" height="12px" preserveAspectRatio="xMinYMin meet" x="13" y="-705"/>
<text text-anchor="start" x="28" y="-696.2" font-family="Helvetica,sans-Serif" font-size="11.00">task_id</text>
<polygon fill="none" stroke="black" points="8,-666 8,-688 150,-688 150,-666 8,-666"/>
<text text-anchor="start" x="28" y="-674.2" font-family="Helvetica,sans-Serif" font-size="11.00">name</text>
<polygon fill="none" stroke="black" points="8,-644 8,-666 150,-666 150,-644 8,-644"/>
<text text-anchor="start" x="28" y="-652.2" font-family="Helvetica,sans-Serif" font-size="11.00">command</text>
<polygon fill="none" stroke="black" points="8,-622 8,-644 150,-644 150,-622 8,-622"/>
<text text-anchor="start" x="28" y="-630.2" font-family="Helvetica,sans-Serif" font-size="11.00">status</text>
<polygon fill="none" stroke="black" points="8,-600 8,-622 150,-622 150,-600 8,-600"/>
<text text-anchor="start" x="28" y="-608.2" font-family="Helvetica,sans-Serif" font-size="11.00">creation_date</text>
<polygon fill="none" stroke="black" points="8,-578 8,-600 150,-600 150,-578 8,-578"/>
<text text-anchor="start" x="28" y="-586.2" font-family="Helvetica,sans-Serif" font-size="11.00">modification_date</text>
<polygon fill="none" stroke="black" points="8,-556 8,-578 150,-578 150,-556 8,-556"/>
<text text-anchor="start" x="28" y="-564.2" font-family="Helvetica,sans-Serif" font-size="11.00">batch</text>
<polygon fill="none" stroke="black" points="8,-534 8,-556 150,-556 150,-534 8,-534"/>
<text text-anchor="start" x="28" y="-542.2" font-family="Helvetica,sans-Serif" font-size="11.00">input</text>
<polygon fill="none" stroke="black" points="8,-512 8,-534 150,-534 150,-512 8,-512"/>
<text text-anchor="start" x="28" y="-520.2" font-family="Helvetica,sans-Serif" font-size="11.00">output</text>
<polygon fill="none" stroke="black" points="8,-490 8,-512 150,-512 150,-490 8,-490"/>
<text text-anchor="start" x="28" y="-498.2" font-family="Helvetica,sans-Serif" font-size="11.00">container</text>
<polygon fill="none" stroke="black" points="8,-468 8,-490 150,-490 150,-468 8,-468"/>
<text text-anchor="start" x="28" y="-476.2" font-family="Helvetica,sans-Serif" font-size="11.00">container_options</text>
<polygon fill="none" stroke="black" points="8,-446 8,-468 150,-468 150,-446 8,-446"/>
<text text-anchor="start" x="28" y="-454.2" font-family="Helvetica,sans-Serif" font-size="11.00">resource</text>
<polygon fill="#ffffff" stroke="transparent" points="8,-428 8,-446 54,-446 54,-428 8,-428"/>
<polygon fill="none" stroke="black" points="8,-428 8,-446 54,-446 54,-428 8,-428"/>
<text text-anchor="start" x="11" y="-434.2" font-family="Helvetica,sans-Serif" font-size="11.00"> &#160;</text>
<polygon fill="#ffffff" stroke="transparent" points="54,-428 54,-446 107,-446 107,-428 54,-428"/>
<polygon fill="none" stroke="black" points="54,-428 54,-446 107,-446 107,-428 54,-428"/>
<text text-anchor="start" x="73" y="-434.2" font-family="Helvetica,sans-Serif" font-size="11.00">1 row</text>
<polygon fill="#ffffff" stroke="transparent" points="107,-428 107,-446 150,-446 150,-428 107,-428"/>
<polygon fill="none" stroke="black" points="107,-428 107,-446 150,-446 150,-428 107,-428"/>
<text text-anchor="start" x="127" y="-434.2" font-family="Helvetica,sans-Serif" font-size="11.00">1 &gt;</text>
</a>
</g>
</g>
<!-- execution&#45;&gt;task -->
<g id="edge1" class="edge">
<title>execution:w&#45;&gt;task:e</title>
<path fill="none" stroke="black" d="M183.98,-607.37C161.29,-626.15 192.38,-699 151,-699"/>
<polygon fill="black" stroke="black" points="190.36,-605.38 199.07,-606.44 194.18,-604.19 198,-603 198,-603 198,-603 194.18,-604.19 196.93,-599.56 190.36,-605.38 190.36,-605.38"/>
<ellipse fill="none" stroke="black" cx="187.31" cy="-606.34" rx="3.2" ry="3.2"/>
</g>
<!-- worker -->
<g id="node4" class="node">
<title>worker</title>
<g id="a_node4"><a xlink:href="../../tables/worker.html" xlink:title="worker" target="_top">
<polygon fill="#ffffff" stroke="transparent" points="8,-37 8,-407 150,-407 150,-37 8,-37"/>
<polygon fill="#f5f5f5" stroke="transparent" points="8,-385 8,-407 150,-407 150,-385 8,-385"/>
<polygon fill="none" stroke="black" points="8,-385 8,-407 150,-407 150,-385 8,-385"/>
<text text-anchor="start" x="13" y="-394.2" font-family="Helvetica,sans-Serif" font-weight="bold" font-size="11.00">worker</text>
<text text-anchor="start" x="108" y="-393.2" font-family="Helvetica,sans-Serif" font-size="11.00">[table]</text>
<polygon fill="none" stroke="black" points="8,-363 8,-385 150,-385 150,-363 8,-363"/>
<image xlink:href="../../images/primaryKeys.png" width="11px" height="12px" preserveAspectRatio="xMinYMin meet" x="13" y="-380"/>
<text text-anchor="start" x="28" y="-371.2" font-family="Helvetica,sans-Serif" font-size="11.00">worker_id</text>
<polygon fill="none" stroke="black" points="8,-341 8,-363 150,-363 150,-341 8,-341"/>
<text text-anchor="start" x="28" y="-349.2" font-family="Helvetica,sans-Serif" font-size="11.00">name</text>
<polygon fill="none" stroke="black" points="8,-319 8,-341 150,-341 150,-319 8,-319"/>
<text text-anchor="start" x="28" y="-327.2" font-family="Helvetica,sans-Serif" font-size="11.00">hostname</text>
<polygon fill="none" stroke="black" points="8,-297 8,-319 150,-319 150,-297 8,-297"/>
<text text-anchor="start" x="28" y="-305.2" font-family="Helvetica,sans-Serif" font-size="11.00">status</text>
<polygon fill="none" stroke="black" points="8,-275 8,-297 150,-297 150,-275 8,-275"/>
<text text-anchor="start" x="28" y="-283.2" font-family="Helvetica,sans-Serif" font-size="11.00">concurrency</text>
<polygon fill="none" stroke="black" points="8,-253 8,-275 150,-275 150,-253 8,-253"/>
<text text-anchor="start" x="28" y="-261.2" font-family="Helvetica,sans-Serif" font-size="11.00">prefetch</text>
<polygon fill="none" stroke="black" points="8,-231 8,-253 150,-253 150,-231 8,-231"/>
<text text-anchor="start" x="28" y="-239.2" font-family="Helvetica,sans-Serif" font-size="11.00">load</text>
<polygon fill="none" stroke="black" points="8,-209 8,-231 150,-231 150,-209 8,-209"/>
<text text-anchor="start" x="28" y="-217.2" font-family="Helvetica,sans-Serif" font-size="11.00">memory</text>
<polygon fill="none" stroke="black" points="8,-187 8,-209 150,-209 150,-187 8,-187"/>
<text text-anchor="start" x="28" y="-195.2" font-family="Helvetica,sans-Serif" font-size="11.00">read_bytes</text>
<polygon fill="none" stroke="black" points="8,-165 8,-187 150,-187 150,-165 8,-165"/>
<text text-anchor="start" x="28" y="-173.2" font-family="Helvetica,sans-Serif" font-size="11.00">written_bytes</text>
<polygon fill="none" stroke="black" points="8,-143 8,-165 150,-165 150,-143 8,-143"/>
<text text-anchor="start" x="28" y="-151.2" font-family="Helvetica,sans-Serif" font-size="11.00">creation_date</text>
<polygon fill="none" stroke="black" points="8,-121 8,-143 150,-143 150,-121 8,-121"/>
<text text-anchor="start" x="28" y="-129.2" font-family="Helvetica,sans-Serif" font-size="11.00">modification_date</text>
<polygon fill="none" stroke="black" points="8,-99 8,-121 150,-121 150,-99 8,-99"/>
<text text-anchor="start" x="28" y="-107.2" font-family="Helvetica,sans-Serif" font-size="11.00">last_contact_date</text>
<polygon fill="none" stroke="black" points="8,-77 8,-99 150,-99 150,-77 8,-77"/>
<text text-anchor="start" x="28" y="-85.2" font-family="Helvetica,sans-Serif" font-size="11.00">batch</text>
<polygon fill="none" stroke="black" points="8,-55 8,-77 150,-77 150,-55 8,-55"/>
<text text-anchor="start" x="28" y="-63.2" font-family="Helvetica,sans-Serif" font-size="11.00">idle_callback</text>
<polygon fill="#ffffff" stroke="transparent" points="8,-37 8,-55 54,-55 54,-37 8,-37"/>
<polygon fill="none" stroke="black" points="8,-37 8,-55 54,-55 54,-37 8,-37"/>
<text text-anchor="start" x="11" y="-43.2" font-family="Helvetica,sans-Serif" font-size="11.00"> &#160;</text>
<polygon fill="#ffffff" stroke="transparent" points="54,-37 54,-55 107,-55 107,-37 54,-37"/>
<polygon fill="none" stroke="black" points="54,-37 54,-55 107,-55 107,-37 54,-37"/>
<text text-anchor="start" x="73" y="-43.2" font-family="Helvetica,sans-Serif" font-size="11.00">1 row</text>
<polygon fill="#ffffff" stroke="transparent" points="107,-37 107,-55 150,-55 150,-37 107,-37"/>
<polygon fill="none" stroke="black" points="107,-37 107,-55 150,-55 150,-37 107,-37"/>
<text text-anchor="start" x="127" y="-43.2" font-family="Helvetica,sans-Serif" font-size="11.00">2 &gt;</text>
</a>
</g>
</g>
<!-- execution&#45;&gt;worker -->
<g id="edge2" class="edge">
<title>execution:w&#45;&gt;worker:e</title>
<path fill="none" stroke="black" d="M183.66,-623.33C101.06,-601.55 259.06,-374 151,-374"/>
<polygon fill="black" stroke="black" points="190.05,-624.08 197.58,-628.58 194.03,-624.54 198,-625 198,-625 198,-625 194.03,-624.54 198.42,-621.42 190.05,-624.08 190.05,-624.08"/>
<ellipse fill="none" stroke="black" cx="186.88" cy="-623.71" rx="3.2" ry="3.2"/>
</g>
<!-- signal -->
<g id="node2" class="node">
<title>signal</title>
<g id="a_node2"><a xlink:href="../../tables/signal.html" xlink:title="signal" target="_top">
<polygon fill="#ffffff" stroke="transparent" points="390,-448 390,-554 496,-554 496,-448 390,-448"/>
<polygon fill="#f5f5f5" stroke="transparent" points="390,-532 390,-554 496,-554 496,-532 390,-532"/>
<polygon fill="none" stroke="black" points="390,-532 390,-554 496,-554 496,-532 390,-532"/>
<text text-anchor="start" x="395" y="-541.2" font-family="Helvetica,sans-Serif" font-weight="bold" font-size="11.00">signal</text>
<text text-anchor="start" x="454" y="-540.2" font-family="Helvetica,sans-Serif" font-size="11.00">[table]</text>
<polygon fill="none" stroke="black" points="390,-510 390,-532 496,-532 496,-510 390,-510"/>
<image xlink:href="../../images/primaryKeys.png" width="11px" height="12px" preserveAspectRatio="xMinYMin meet" x="395" y="-527"/>
<text text-anchor="start" x="410" y="-518.2" font-family="Helvetica,sans-Serif" font-size="11.00">execution_id</text>
<polygon fill="none" stroke="black" points="390,-488 390,-510 496,-510 496,-488 390,-488"/>
<image xlink:href="../../images/primaryKeys.png" width="11px" height="12px" preserveAspectRatio="xMinYMin meet" x="395" y="-505"/>
<text text-anchor="start" x="410" y="-496.2" font-family="Helvetica,sans-Serif" font-size="11.00">worker_id</text>
<polygon fill="none" stroke="black" points="390,-466 390,-488 496,-488 496,-466 390,-466"/>
<text text-anchor="start" x="410" y="-474.2" font-family="Helvetica,sans-Serif" font-size="11.00">signal</text>
<polygon fill="#ffffff" stroke="transparent" points="390,-448 390,-466 427,-466 427,-448 390,-448"/>
<polygon fill="none" stroke="black" points="390,-448 390,-466 427,-466 427,-448 390,-448"/>
<text text-anchor="start" x="393" y="-454.2" font-family="Helvetica,sans-Serif" font-size="11.00">&lt; 2</text>
<polygon fill="#ffffff" stroke="transparent" points="427,-448 427,-466 476,-466 476,-448 427,-448"/>
<polygon fill="none" stroke="black" points="427,-448 427,-466 476,-466 476,-448 427,-448"/>
<text text-anchor="start" x="436" y="-454.2" font-family="Helvetica,sans-Serif" font-size="11.00">0 rows</text>
<polygon fill="#ffffff" stroke="transparent" points="476,-448 476,-466 496,-466 496,-448 476,-448"/>
<polygon fill="none" stroke="black" points="476,-448 476,-466 496,-466 496,-448 476,-448"/>
<text text-anchor="start" x="485" y="-454.2" font-family="Helvetica,sans-Serif" font-size="11.00"> &#160;</text>
</a>
</g>
</g>
<!-- signal&#45;&gt;execution -->
<g id="edge3" class="edge">
<title>signal:w&#45;&gt;execution:e</title>
<path fill="none" stroke="black" d="M374.61,-524.64C342.6,-545.29 395.7,-647 342,-647"/>
<polygon fill="black" stroke="black" points="381.24,-522.96 389.88,-524.49 385.12,-521.98 389,-521 389,-521 389,-521 385.12,-521.98 388.12,-517.51 381.24,-522.96 381.24,-522.96"/>
<ellipse fill="none" stroke="black" cx="378.14" cy="-523.74" rx="3.2" ry="3.2"/>
</g>
<!-- signal&#45;&gt;worker -->
<g id="edge4" class="edge">
<title>signal:w&#45;&gt;worker:e</title>
<path fill="none" stroke="black" d="M374.63,-495.94C347.96,-481.06 385.92,-415.93 349,-388 278.65,-334.77 239.22,-374 151,-374"/>
<polygon fill="black" stroke="black" points="381.18,-497.33 388.25,-502.52 385.09,-498.17 389,-499 389,-499 389,-499 385.09,-498.17 389.75,-495.48 381.18,-497.33 381.18,-497.33"/>
<ellipse fill="none" stroke="black" cx="378.05" cy="-496.66" rx="3.2" ry="3.2"/>
</g>
</g>
</svg>
