<?xml version="1.0" encoding="UTF-8" standalone="no"?>
<!DOCTYPE svg PUBLIC "-//W3C//DTD SVG 1.1//EN"
 "http://www.w3.org/Graphics/SVG/1.1/DTD/svg11.dtd">
<!-- Generated by graphviz version 2.43.0 (0)
 -->
<!-- Title: largeRelationshipsDiagram Pages: 1 -->
<svg width="515pt" height="935pt"
 viewBox="0.00 0.00 515.00 935.00" xmlns="http://www.w3.org/2000/svg" xmlns:xlink="http://www.w3.org/1999/xlink">
<g id="graph0" class="graph" transform="scale(1 1) rotate(0) translate(4 931)">
<title>largeRelationshipsDiagram</title>
<polygon fill="#ffffff" stroke="transparent" points="-4,4 -4,-931 511,-931 511,4 -4,4"/>
<text text-anchor="middle" x="79.5" y="-7.2" font-family="Helvetica,sans-Serif" font-size="11.00">Generated by SchemaSpy</text>
<!-- execution -->
<g id="node1" class="node">
<title>execution</title>
<g id="a_node1"><a xlink:href="tables/execution.html" xlink:title="execution" target="_top">
<polygon fill="#ffffff" stroke="transparent" points="202,-464 202,-790 344,-790 344,-464 202,-464"/>
<polygon fill="#f5f5f5" stroke="transparent" points="202,-768 202,-790 344,-790 344,-768 202,-768"/>
<polygon fill="none" stroke="black" points="202,-768 202,-790 344,-790 344,-768 202,-768"/>
<text text-anchor="start" x="207" y="-777.2" font-family="Helvetica,sans-Serif" font-weight="bold" font-size="11.00">execution</text>
<text text-anchor="start" x="302" y="-776.2" font-family="Helvetica,sans-Serif" font-size="11.00">[table]</text>
<polygon fill="none" stroke="black" points="202,-746 202,-768 344,-768 344,-746 202,-746"/>
<image xlink:href="../../images/primaryKeys.png" width="11px" height="12px" preserveAspectRatio="xMinYMin meet" x="207" y="-763"/>
<text text-anchor="start" x="222" y="-754.2" font-family="Helvetica,sans-Serif" font-size="11.00">execution_id</text>
<polygon fill="none" stroke="black" points="202,-724 202,-746 344,-746 344,-724 202,-724"/>
<image xlink:href="../../images/foreignKeys.png" width="11px" height="12px" preserveAspectRatio="xMinYMin meet" x="207" y="-741"/>
<text text-anchor="start" x="222" y="-732.2" font-family="Helvetica,sans-Serif" font-size="11.00">worker_id</text>
<polygon fill="none" stroke="black" points="202,-702 202,-724 344,-724 344,-702 202,-702"/>
<image xlink:href="../../images/foreignKeys.png" width="11px" height="12px" preserveAspectRatio="xMinYMin meet" x="207" y="-719"/>
<text text-anchor="start" x="222" y="-710.2" font-family="Helvetica,sans-Serif" font-size="11.00">task_id</text>
<polygon fill="none" stroke="black" points="202,-680 202,-702 344,-702 344,-680 202,-680"/>
<text text-anchor="start" x="222" y="-688.2" font-family="Helvetica,sans-Serif" font-size="11.00">status</text>
<polygon fill="none" stroke="black" points="202,-658 202,-680 344,-680 344,-658 202,-658"/>
<text text-anchor="start" x="222" y="-666.2" font-family="Helvetica,sans-Serif" font-size="11.00">creation_date</text>
<polygon fill="none" stroke="black" points="202,-636 202,-658 344,-658 344,-636 202,-636"/>
<text text-anchor="start" x="222" y="-644.2" font-family="Helvetica,sans-Serif" font-size="11.00">modification_date</text>
<polygon fill="none" stroke="black" points="202,-614 202,-636 344,-636 344,-614 202,-614"/>
<text text-anchor="start" x="222" y="-622.2" font-family="Helvetica,sans-Serif" font-size="11.00">output</text>
<polygon fill="none" stroke="black" points="202,-592 202,-614 344,-614 344,-592 202,-592"/>
<text text-anchor="start" x="222" y="-600.2" font-family="Helvetica,sans-Serif" font-size="11.00">error</text>
<polygon fill="none" stroke="black" points="202,-570 202,-592 344,-592 344,-570 202,-570"/>
<text text-anchor="start" x="222" y="-578.2" font-family="Helvetica,sans-Serif" font-size="11.00">return_code</text>
<polygon fill="none" stroke="black" points="202,-548 202,-570 344,-570 344,-548 202,-548"/>
<text text-anchor="start" x="222" y="-556.2" font-family="Helvetica,sans-Serif" font-size="11.00">pid</text>
<polygon fill="none" stroke="black" points="202,-526 202,-548 344,-548 344,-526 202,-526"/>
<text text-anchor="start" x="222" y="-534.2" font-family="Helvetica,sans-Serif" font-size="11.00">output_files</text>
<polygon fill="none" stroke="black" points="202,-504 202,-526 344,-526 344,-504 202,-504"/>
<text text-anchor="start" x="222" y="-512.2" font-family="Helvetica,sans-Serif" font-size="11.00">command</text>
<polygon fill="none" stroke="black" points="202,-482 202,-504 344,-504 344,-482 202,-482"/>
<text text-anchor="start" x="222" y="-490.2" font-family="Helvetica,sans-Serif" font-size="11.00">latest</text>
<polygon fill="#ffffff" stroke="transparent" points="202,-464 202,-482 239,-482 239,-464 202,-464"/>
<polygon fill="none" stroke="black" points="202,-464 202,-482 239,-482 239,-464 202,-464"/>
<text text-anchor="start" x="205" y="-470.2" font-family="Helvetica,sans-Serif" font-size="11.00">&lt; 2</text>
<polygon fill="#ffffff" stroke="transparent" points="239,-464 239,-482 312,-482 312,-464 239,-464"/>
<polygon fill="none" stroke="black" points="239,-464 239,-482 312,-482 312,-464 239,-464"/>
<text text-anchor="start" x="248" y="-470.2" font-family="Helvetica,sans-Serif" font-size="11.00">1,825 rows</text>
<polygon fill="#ffffff" stroke="transparent" points="312,-464 312,-482 344,-482 344,-464 312,-464"/>
<polygon fill="none" stroke="black" points="312,-464 312,-482 344,-482 344,-464 312,-464"/>
<text text-anchor="start" x="321" y="-470.2" font-family="Helvetica,sans-Serif" font-size="11.00">1 &gt;</text>
</a>
</g>
</g>
<!-- task -->
<g id="node4" class="node">
<title>task</title>
<g id="a_node4"><a xlink:href="tables/task.html" xlink:title="task" target="_top">
<polygon fill="#ffffff" stroke="transparent" points="8,-494 8,-886 153,-886 153,-494 8,-494"/>
<polygon fill="#f5f5f5" stroke="transparent" points="8.5,-864 8.5,-886 153.5,-886 153.5,-864 8.5,-864"/>
<polygon fill="none" stroke="black" points="8.5,-864 8.5,-886 153.5,-886 153.5,-864 8.5,-864"/>
<text text-anchor="start" x="13.5" y="-873.2" font-family="Helvetica,sans-Serif" font-weight="bold" font-size="11.00">task</text>
<text text-anchor="start" x="111.5" y="-872.2" font-family="Helvetica,sans-Serif" font-size="11.00">[table]</text>
<polygon fill="none" stroke="black" points="8.5,-842 8.5,-864 153.5,-864 153.5,-842 8.5,-842"/>
<image xlink:href="../../images/primaryKeys.png" width="11px" height="12px" preserveAspectRatio="xMinYMin meet" x="13.5" y="-859"/>
<text text-anchor="start" x="28.5" y="-850.2" font-family="Helvetica,sans-Serif" font-size="11.00">task_id</text>
<polygon fill="none" stroke="black" points="8.5,-820 8.5,-842 153.5,-842 153.5,-820 8.5,-820"/>
<text text-anchor="start" x="28.5" y="-828.2" font-family="Helvetica,sans-Serif" font-size="11.00">name</text>
<polygon fill="none" stroke="black" points="8.5,-798 8.5,-820 153.5,-820 153.5,-798 8.5,-798"/>
<text text-anchor="start" x="28.5" y="-806.2" font-family="Helvetica,sans-Serif" font-size="11.00">command</text>
<polygon fill="none" stroke="black" points="8.5,-776 8.5,-798 153.5,-798 153.5,-776 8.5,-776"/>
<text text-anchor="start" x="28.5" y="-784.2" font-family="Helvetica,sans-Serif" font-size="11.00">status</text>
<polygon fill="none" stroke="black" points="8.5,-754 8.5,-776 153.5,-776 153.5,-754 8.5,-754"/>
<text text-anchor="start" x="28.5" y="-762.2" font-family="Helvetica,sans-Serif" font-size="11.00">creation_date</text>
<polygon fill="none" stroke="black" points="8.5,-732 8.5,-754 153.5,-754 153.5,-732 8.5,-732"/>
<text text-anchor="start" x="28.5" y="-740.2" font-family="Helvetica,sans-Serif" font-size="11.00">modification_date</text>
<polygon fill="none" stroke="black" points="8.5,-710 8.5,-732 153.5,-732 153.5,-710 8.5,-710"/>
<text text-anchor="start" x="28.5" y="-718.2" font-family="Helvetica,sans-Serif" font-size="11.00">batch</text>
<polygon fill="none" stroke="black" points="8.5,-688 8.5,-710 153.5,-710 153.5,-688 8.5,-688"/>
<text text-anchor="start" x="28.5" y="-696.2" font-family="Helvetica,sans-Serif" font-size="11.00">input</text>
<polygon fill="none" stroke="black" points="8.5,-666 8.5,-688 153.5,-688 153.5,-666 8.5,-666"/>
<text text-anchor="start" x="28.5" y="-674.2" font-family="Helvetica,sans-Serif" font-size="11.00">output</text>
<polygon fill="none" stroke="black" points="8.5,-644 8.5,-666 153.5,-666 153.5,-644 8.5,-644"/>
<text text-anchor="start" x="28.5" y="-652.2" font-family="Helvetica,sans-Serif" font-size="11.00">container</text>
<polygon fill="none" stroke="black" points="8.5,-622 8.5,-644 153.5,-644 153.5,-622 8.5,-622"/>
<text text-anchor="start" x="28.5" y="-630.2" font-family="Helvetica,sans-Serif" font-size="11.00">container_options</text>
<polygon fill="none" stroke="black" points="8.5,-600 8.5,-622 153.5,-622 153.5,-600 8.5,-600"/>
<text text-anchor="start" x="28.5" y="-608.2" font-family="Helvetica,sans-Serif" font-size="11.00">resource</text>
<polygon fill="none" stroke="black" points="8.5,-578 8.5,-600 153.5,-600 153.5,-578 8.5,-578"/>
<text text-anchor="start" x="28.5" y="-586.2" font-family="Helvetica,sans-Serif" font-size="11.00">retry</text>
<polygon fill="none" stroke="black" points="8.5,-556 8.5,-578 153.5,-578 153.5,-556 8.5,-556"/>
<text text-anchor="start" x="28.5" y="-564.2" font-family="Helvetica,sans-Serif" font-size="11.00">status_date</text>
<polygon fill="none" stroke="black" points="8.5,-534 8.5,-556 153.5,-556 153.5,-534 8.5,-534"/>
<text text-anchor="start" x="28.5" y="-542.2" font-family="Helvetica,sans-Serif" font-size="11.00">download_timeout</text>
<polygon fill="none" stroke="black" points="8.5,-512 8.5,-534 153.5,-534 153.5,-512 8.5,-512"/>
<text text-anchor="start" x="28.5" y="-520.2" font-family="Helvetica,sans-Serif" font-size="11.00">run_timeout</text>
<polygon fill="#ffffff" stroke="transparent" points="8.5,-494 8.5,-512 41.5,-512 41.5,-494 8.5,-494"/>
<polygon fill="none" stroke="black" points="8.5,-494 8.5,-512 41.5,-512 41.5,-494 8.5,-494"/>
<text text-anchor="start" x="11.5" y="-500.2" font-family="Helvetica,sans-Serif" font-size="11.00"> &#160;</text>
<polygon fill="#ffffff" stroke="transparent" points="41.5,-494 41.5,-512 117.5,-512 117.5,-494 41.5,-494"/>
<polygon fill="none" stroke="black" points="41.5,-494 41.5,-512 117.5,-512 117.5,-494 41.5,-494"/>
<text text-anchor="start" x="53.5" y="-500.2" font-family="Helvetica,sans-Serif" font-size="11.00">1,815 rows</text>
<polygon fill="#ffffff" stroke="transparent" points="117.5,-494 117.5,-512 153.5,-512 153.5,-494 117.5,-494"/>
<polygon fill="none" stroke="black" points="117.5,-494 117.5,-512 153.5,-512 153.5,-494 117.5,-494"/>
<text text-anchor="start" x="130.5" y="-500.2" font-family="Helvetica,sans-Serif" font-size="11.00">3 &gt;</text>
</a>
</g>
</g>
<!-- execution&#45;&gt;task -->
<g id="edge1" class="edge">
<title>execution:w&#45;&gt;task:e</title>
<path fill="none" stroke="black" d="M186.75,-716.19C149.43,-737.03 214.17,-853 154.5,-853"/>
<polygon fill="black" stroke="black" points="193.19,-714.75 201.79,-716.51 197.1,-713.87 201,-713 201,-713 201,-713 197.1,-713.87 200.21,-709.49 193.19,-714.75 193.19,-714.75"/>
<ellipse fill="none" stroke="black" cx="190.07" cy="-715.44" rx="3.2" ry="3.2"/>
</g>
<!-- worker -->
<g id="node5" class="node">
<title>worker</title>
<g id="a_node5"><a xlink:href="tables/worker.html" xlink:title="worker" target="_top">
<polygon fill="#ffffff" stroke="transparent" points="9.5,-37 9.5,-473 151.5,-473 151.5,-37 9.5,-37"/>
<polygon fill="#f5f5f5" stroke="transparent" points="9.5,-451 9.5,-473 151.5,-473 151.5,-451 9.5,-451"/>
<polygon fill="none" stroke="black" points="9.5,-451 9.5,-473 151.5,-473 151.5,-451 9.5,-451"/>
<text text-anchor="start" x="14.5" y="-460.2" font-family="Helvetica,sans-Serif" font-weight="bold" font-size="11.00">worker</text>
<text text-anchor="start" x="109.5" y="-459.2" font-family="Helvetica,sans-Serif" font-size="11.00">[table]</text>
<polygon fill="none" stroke="black" points="9.5,-429 9.5,-451 151.5,-451 151.5,-429 9.5,-429"/>
<image xlink:href="../../images/primaryKeys.png" width="11px" height="12px" preserveAspectRatio="xMinYMin meet" x="14.5" y="-446"/>
<text text-anchor="start" x="29.5" y="-437.2" font-family="Helvetica,sans-Serif" font-size="11.00">worker_id</text>
<polygon fill="none" stroke="black" points="9.5,-407 9.5,-429 151.5,-429 151.5,-407 9.5,-407"/>
<text text-anchor="start" x="29.5" y="-415.2" font-family="Helvetica,sans-Serif" font-size="11.00">name</text>
<polygon fill="none" stroke="black" points="9.5,-385 9.5,-407 151.5,-407 151.5,-385 9.5,-385"/>
<text text-anchor="start" x="29.5" y="-393.2" font-family="Helvetica,sans-Serif" font-size="11.00">hostname</text>
<polygon fill="none" stroke="black" points="9.5,-363 9.5,-385 151.5,-385 151.5,-363 9.5,-363"/>
<text text-anchor="start" x="29.5" y="-371.2" font-family="Helvetica,sans-Serif" font-size="11.00">status</text>
<polygon fill="none" stroke="black" points="9.5,-341 9.5,-363 151.5,-363 151.5,-341 9.5,-341"/>
<text text-anchor="start" x="29.5" y="-349.2" font-family="Helvetica,sans-Serif" font-size="11.00">concurrency</text>
<polygon fill="none" stroke="black" points="9.5,-319 9.5,-341 151.5,-341 151.5,-319 9.5,-319"/>
<text text-anchor="start" x="29.5" y="-327.2" font-family="Helvetica,sans-Serif" font-size="11.00">prefetch</text>
<polygon fill="none" stroke="black" points="9.5,-297 9.5,-319 151.5,-319 151.5,-297 9.5,-297"/>
<text text-anchor="start" x="29.5" y="-305.2" font-family="Helvetica,sans-Serif" font-size="11.00">load</text>
<polygon fill="none" stroke="black" points="9.5,-275 9.5,-297 151.5,-297 151.5,-275 9.5,-275"/>
<text text-anchor="start" x="29.5" y="-283.2" font-family="Helvetica,sans-Serif" font-size="11.00">memory</text>
<polygon fill="none" stroke="black" points="9.5,-253 9.5,-275 151.5,-275 151.5,-253 9.5,-253"/>
<text text-anchor="start" x="29.5" y="-261.2" font-family="Helvetica,sans-Serif" font-size="11.00">stats</text>
<polygon fill="none" stroke="black" points="9.5,-231 9.5,-253 151.5,-253 151.5,-231 9.5,-231"/>
<text text-anchor="start" x="29.5" y="-239.2" font-family="Helvetica,sans-Serif" font-size="11.00">creation_date</text>
<polygon fill="none" stroke="black" points="9.5,-209 9.5,-231 151.5,-231 151.5,-209 9.5,-209"/>
<text text-anchor="start" x="29.5" y="-217.2" font-family="Helvetica,sans-Serif" font-size="11.00">modification_date</text>
<polygon fill="none" stroke="black" points="9.5,-187 9.5,-209 151.5,-209 151.5,-187 9.5,-187"/>
<text text-anchor="start" x="29.5" y="-195.2" font-family="Helvetica,sans-Serif" font-size="11.00">last_contact_date</text>
<polygon fill="none" stroke="black" points="9.5,-165 9.5,-187 151.5,-187 151.5,-165 9.5,-165"/>
<text text-anchor="start" x="29.5" y="-173.2" font-family="Helvetica,sans-Serif" font-size="11.00">batch</text>
<polygon fill="none" stroke="black" points="9.5,-143 9.5,-165 151.5,-165 151.5,-143 9.5,-143"/>
<text text-anchor="start" x="29.5" y="-151.2" font-family="Helvetica,sans-Serif" font-size="11.00">idle_callback</text>
<polygon fill="none" stroke="black" points="9.5,-121 9.5,-143 151.5,-143 151.5,-121 9.5,-121"/>
<text text-anchor="start" x="29.5" y="-129.2" font-family="Helvetica,sans-Serif" font-size="11.00">task_properties</text>
<polygon fill="none" stroke="black" points="9.5,-99 9.5,-121 151.5,-121 151.5,-99 9.5,-99"/>
<text text-anchor="start" x="29.5" y="-107.2" font-family="Helvetica,sans-Serif" font-size="11.00">flavor</text>
<polygon fill="none" stroke="black" points="9.5,-77 9.5,-99 151.5,-99 151.5,-77 9.5,-77"/>
<text text-anchor="start" x="29.5" y="-85.2" font-family="Helvetica,sans-Serif" font-size="11.00">region</text>
<polygon fill="none" stroke="black" points="9.5,-55 9.5,-77 151.5,-77 151.5,-55 9.5,-55"/>
<text text-anchor="start" x="29.5" y="-63.2" font-family="Helvetica,sans-Serif" font-size="11.00">provider</text>
<polygon fill="#ffffff" stroke="transparent" points="9.5,-37 9.5,-55 55.5,-55 55.5,-37 9.5,-37"/>
<polygon fill="none" stroke="black" points="9.5,-37 9.5,-55 55.5,-55 55.5,-37 9.5,-37"/>
<text text-anchor="start" x="12.5" y="-43.2" font-family="Helvetica,sans-Serif" font-size="11.00"> &#160;</text>
<polygon fill="#ffffff" stroke="transparent" points="55.5,-37 55.5,-55 108.5,-55 108.5,-37 55.5,-37"/>
<polygon fill="none" stroke="black" points="55.5,-37 55.5,-55 108.5,-55 108.5,-37 55.5,-37"/>
<text text-anchor="start" x="74.5" y="-43.2" font-family="Helvetica,sans-Serif" font-size="11.00">1 row</text>
<polygon fill="#ffffff" stroke="transparent" points="108.5,-37 108.5,-55 151.5,-55 151.5,-37 108.5,-37"/>
<polygon fill="none" stroke="black" points="108.5,-37 108.5,-55 151.5,-55 151.5,-37 108.5,-37"/>
<text text-anchor="start" x="128.5" y="-43.2" font-family="Helvetica,sans-Serif" font-size="11.00">2 &gt;</text>
</a>
</g>
</g>
<!-- execution&#45;&gt;worker -->
<g id="edge2" class="edge">
<title>execution:w&#45;&gt;worker:e</title>
<path fill="none" stroke="black" d="M187.53,-729.37C147.39,-688.59 213.49,-440 152.5,-440"/>
<polygon fill="black" stroke="black" points="193.62,-731.92 199.61,-738.32 197.31,-733.46 201,-735 201,-735 201,-735 197.31,-733.46 202.39,-731.68 193.62,-731.92 193.62,-731.92"/>
<ellipse fill="none" stroke="black" cx="190.67" cy="-730.68" rx="3.2" ry="3.2"/>
</g>
<!-- requirement -->
<g id="node2" class="node">
<title>requirement</title>
<g id="a_node2"><a xlink:href="tables/requirement.html" xlink:title="requirement" target="_top">
<polygon fill="#ffffff" stroke="transparent" points="209.5,-817 209.5,-923 336.5,-923 336.5,-817 209.5,-817"/>
<polygon fill="#f5f5f5" stroke="transparent" points="210,-901 210,-923 337,-923 337,-901 210,-901"/>
<polygon fill="none" stroke="black" points="210,-901 210,-923 337,-923 337,-901 210,-901"/>
<text text-anchor="start" x="215" y="-910.2" font-family="Helvetica,sans-Serif" font-weight="bold" font-size="11.00">requirement</text>
<text text-anchor="start" x="295" y="-909.2" font-family="Helvetica,sans-Serif" font-size="11.00">[table]</text>
<polygon fill="none" stroke="black" points="210,-879 210,-901 337,-901 337,-879 210,-879"/>
<image xlink:href="../../images/primaryKeys.png" width="11px" height="12px" preserveAspectRatio="xMinYMin meet" x="215" y="-896"/>
<text text-anchor="start" x="232" y="-887.2" font-family="Helvetica,sans-Serif" font-size="11.00">requirement_id</text>
<polygon fill="none" stroke="black" points="210,-857 210,-879 337,-879 337,-857 210,-857"/>
<image xlink:href="../../images/foreignKeys.png" width="11px" height="12px" preserveAspectRatio="xMinYMin meet" x="215" y="-874"/>
<text text-anchor="start" x="232" y="-865.2" font-family="Helvetica,sans-Serif" font-size="11.00">task_id</text>
<polygon fill="none" stroke="black" points="210,-835 210,-857 337,-857 337,-835 210,-835"/>
<image xlink:href="../../images/foreignKeys.png" width="11px" height="12px" preserveAspectRatio="xMinYMin meet" x="215" y="-852"/>
<text text-anchor="start" x="232" y="-843.2" font-family="Helvetica,sans-Serif" font-size="11.00">other_task_id</text>
<polygon fill="#ffffff" stroke="transparent" points="210,-817 210,-835 246,-835 246,-817 210,-817"/>
<polygon fill="none" stroke="black" points="210,-817 210,-835 246,-835 246,-817 210,-817"/>
<text text-anchor="start" x="213" y="-823.2" font-family="Helvetica,sans-Serif" font-size="11.00">&lt; 2</text>
<polygon fill="#ffffff" stroke="transparent" points="246,-817 246,-835 318,-835 318,-817 246,-817"/>
<polygon fill="none" stroke="black" points="246,-817 246,-835 318,-835 318,-817 246,-817"/>
<text text-anchor="start" x="254" y="-823.2" font-family="Helvetica,sans-Serif" font-size="11.00">1,690 rows</text>
<polygon fill="#ffffff" stroke="transparent" points="318,-817 318,-835 337,-835 337,-817 318,-817"/>
<polygon fill="none" stroke="black" points="318,-817 318,-835 337,-835 337,-817 318,-817"/>
<text text-anchor="start" x="326" y="-823.2" font-family="Helvetica,sans-Serif" font-size="11.00"> &#160;</text>
</a>
</g>
</g>
<!-- requirement&#45;&gt;task -->
<g id="edge3" class="edge">
<title>requirement:w&#45;&gt;task:e</title>
<path fill="none" stroke="black" d="M194.44,-846.97C180.9,-848.9 173.2,-853 154.5,-853"/>
<polygon fill="black" stroke="black" points="201.02,-846.53 209.24,-849.59 205.01,-846.27 209,-846 209,-846 209,-846 205.01,-846.27 208.76,-842.41 201.02,-846.53 201.02,-846.53"/>
<ellipse fill="none" stroke="black" cx="197.82" cy="-846.75" rx="3.2" ry="3.2"/>
</g>
<!-- requirement&#45;&gt;task -->
<g id="edge4" class="edge">
<title>requirement:w&#45;&gt;task:e</title>
<path fill="none" stroke="black" d="M194.65,-866.04C180.88,-861.97 173.93,-853 154.5,-853"/>
<polygon fill="black" stroke="black" points="201.07,-866.92 208.51,-871.57 205.04,-867.46 209,-868 209,-868 209,-868 205.04,-867.46 209.49,-864.43 201.07,-866.92 201.07,-866.92"/>
<ellipse fill="none" stroke="black" cx="197.9" cy="-866.48" rx="3.2" ry="3.2"/>
</g>
<!-- signal -->
<g id="node3" class="node">
<title>signal</title>
<g id="a_node3"><a xlink:href="tables/signal.html" xlink:title="signal" target="_top">
<polygon fill="#ffffff" stroke="transparent" points="393,-536 393,-664 499,-664 499,-536 393,-536"/>
<polygon fill="#f5f5f5" stroke="transparent" points="393,-642 393,-664 499,-664 499,-642 393,-642"/>
<polygon fill="none" stroke="black" points="393,-642 393,-664 499,-664 499,-642 393,-642"/>
<text text-anchor="start" x="398" y="-651.2" font-family="Helvetica,sans-Serif" font-weight="bold" font-size="11.00">signal</text>
<text text-anchor="start" x="457" y="-650.2" font-family="Helvetica,sans-Serif" font-size="11.00">[table]</text>
<polygon fill="none" stroke="black" points="393,-620 393,-642 499,-642 499,-620 393,-620"/>
<image xlink:href="../../images/primaryKeys.png" width="11px" height="12px" preserveAspectRatio="xMinYMin meet" x="398" y="-637"/>
<text text-anchor="start" x="413" y="-628.2" font-family="Helvetica,sans-Serif" font-size="11.00">signal_id</text>
<polygon fill="none" stroke="black" points="393,-598 393,-620 499,-620 499,-598 393,-598"/>
<image xlink:href="../../images/foreignKeys.png" width="11px" height="12px" preserveAspectRatio="xMinYMin meet" x="398" y="-615"/>
<text text-anchor="start" x="413" y="-606.2" font-family="Helvetica,sans-Serif" font-size="11.00">execution_id</text>
<polygon fill="none" stroke="black" points="393,-576 393,-598 499,-598 499,-576 393,-576"/>
<image xlink:href="../../images/foreignKeys.png" width="11px" height="12px" preserveAspectRatio="xMinYMin meet" x="398" y="-593"/>
<text text-anchor="start" x="413" y="-584.2" font-family="Helvetica,sans-Serif" font-size="11.00">worker_id</text>
<polygon fill="none" stroke="black" points="393,-554 393,-576 499,-576 499,-554 393,-554"/>
<text text-anchor="start" x="413" y="-562.2" font-family="Helvetica,sans-Serif" font-size="11.00">signal</text>
<polygon fill="#ffffff" stroke="transparent" points="393,-536 393,-554 430,-554 430,-536 393,-536"/>
<polygon fill="none" stroke="black" points="393,-536 393,-554 430,-554 430,-536 393,-536"/>
<text text-anchor="start" x="396" y="-542.2" font-family="Helvetica,sans-Serif" font-size="11.00">&lt; 2</text>
<polygon fill="#ffffff" stroke="transparent" points="430,-536 430,-554 479,-554 479,-536 430,-536"/>
<polygon fill="none" stroke="black" points="430,-536 430,-554 479,-554 479,-536 430,-536"/>
<text text-anchor="start" x="439" y="-542.2" font-family="Helvetica,sans-Serif" font-size="11.00">0 rows</text>
<polygon fill="#ffffff" stroke="transparent" points="479,-536 479,-554 499,-554 499,-536 479,-536"/>
<polygon fill="none" stroke="black" points="479,-536 479,-554 499,-554 499,-536 479,-536"/>
<text text-anchor="start" x="488" y="-542.2" font-family="Helvetica,sans-Serif" font-size="11.00"> &#160;</text>
</a>
</g>
</g>
<!-- signal&#45;&gt;execution -->
<g id="edge5" class="edge">
<title>signal:w&#45;&gt;execution:e</title>
<path fill="none" stroke="black" d="M377.81,-611.96C337.15,-632.82 408.22,-757 345,-757"/>
<polygon fill="black" stroke="black" points="384.17,-610.63 392.73,-612.52 388.08,-609.82 392,-609 392,-609 392,-609 388.08,-609.82 391.27,-605.48 384.17,-610.63 384.17,-610.63"/>
<ellipse fill="none" stroke="black" cx="381.04" cy="-611.28" rx="3.2" ry="3.2"/>
</g>
<!-- signal&#45;&gt;worker -->
<g id="edge6" class="edge">
<title>signal:w&#45;&gt;worker:e</title>
<path fill="none" stroke="black" d="M377.45,-584.44C342.81,-569.08 395.51,-488.78 352,-454 282.57,-398.5 241.38,-440 152.5,-440"/>
<polygon fill="black" stroke="black" points="384.12,-585.61 391.38,-590.55 388.06,-586.31 392,-587 392,-587 392,-587 388.06,-586.31 392.62,-583.45 384.12,-585.61 384.12,-585.61"/>
<ellipse fill="none" stroke="black" cx="380.97" cy="-585.06" rx="3.2" ry="3.2"/>
</g>
</g>
</svg>
